<svg xmlns="http://www.w3.org/2000/svg" xmlns:xlink="http://www.w3.org/1999/xlink" viewBox="0 0 1920 1080" width="1920" height="1080" preserveAspectRatio="xMidYMid meet" style="width: 100%; height: 100%; transform: translate3d(0px, 0px, 0px); content-visibility: visible;">
  <g>
    <g class="png" transform="matrix(1,0,0,1,0,0)" opacity="1" style="display: block;">
      <image width="1920px" height="1080px" preserveAspectRatio="xMidYMid slice" 
      xlink:href=
      "https://cdn.peonani.com/product/2023-11-05/8ededda0-4308-4f90-99c3-ec7bb93777ba"/>
      </g>
      <g transform="matrix(1.5,0,0,1.5,1184.9005126953125,471.4004821777344)" opacity="1" style="display: block;">
      <g opacity="1" transform="matrix(1,0,0,1,-503.8009948730469,89.1989974975586)"><path stroke-linecap="butt" stroke-linejoin="miter" fill-opacity="0" stroke-miterlimit="4" stroke="rgb(255,255,255)" stroke-opacity="1" stroke-width="1.3107888039361364" d=" M0,-96.82746887207031 C53.43907928466797,-96.82746887207031 96.82746887207031,-53.43907928466797 96.82746887207031,0 C96.82746887207031,53.43907928466797 53.43907928466797,96.82746887207031 0,96.82746887207031 C-53.43907928466797,96.82746887207031 -96.82746887207031,53.43907928466797 -96.82746887207031,0 C-96.82746887207031,-53.43907928466797 -53.43907928466797,-96.82746887207031 0,-96.82746887207031z"/></g></g><g transform="matrix(1,0,0,1,933,516)" opacity="1" style="display: block;"><g opacity="1" transform="matrix(1,0,0,1,-503.8009948730469,89.1989974975586)"><path stroke-linecap="butt" stroke-linejoin="miter" fill-opacity="0" stroke-miterlimit="4" stroke="rgb(255,255,255)" stroke-opacity="1" stroke-width="1.9642243117216338" d=" M0,-106.06600952148438 C58.5378303527832,-106.06600952148438 106.06600952148438,-58.5378303527832 106.06600952148438,0 C106.06600952148438,58.5378303527832 58.5378303527832,106.06600952148438 0,106.06600952148438 C-58.5378303527832,106.06600952148438 -106.06600952148438,58.5378303527832 -106.06600952148438,0 C-106.06600952148438,-58.5378303527832 -58.5378303527832,-106.06600952148438 0,-106.06600952148438z"/></g></g><g transform="matrix(0.5,0,0,0.5,681.0994873046875,560.5994873046875)" opacity="1" style="display: block;"><g opacity="1" transform="matrix(1,0,0,1,-503.8009948730469,89.1989974975586)"><path stroke-linecap="butt" stroke-linejoin="miter" fill-opacity="0" stroke-miterlimit="4" stroke="rgb(255,255,255)" stroke-opacity="1" stroke-width="3.9284680336078335" d=" M0,-113.18315124511719 C62.465782165527344,-113.18315124511719 113.18315124511719,-62.465782165527344 113.18315124511719,0 C113.18315124511719,62.465782165527344 62.465782165527344,113.18315124511719 0,113.18315124511719 C-62.465782165527344,113.18315124511719 -113.18315124511719,62.465782165527344 -113.18315124511719,0 C-113.18315124511719,-62.465782165527344 -62.465782165527344,-113.18315124511719 0,-113.18315124511719z"/></g></g><g transform="matrix(1.5,0,0,1.5,2249.900390625,471.4004821777344)" opacity="1" style="display: block;"><g opacity="1" transform="matrix(1,0,0,1,-503.8009948730469,89.1989974975586)"><path stroke-linecap="butt" stroke-linejoin="miter" fill-opacity="0" stroke-miterlimit="4" stroke="rgb(255,255,255)" stroke-opacity="1" stroke-width="1.3107888039361364" d=" M0,-96.82746887207031 C53.43907928466797,-96.82746887207031 96.82746887207031,-53.43907928466797 96.82746887207031,0 C96.82746887207031,53.43907928466797 53.43907928466797,96.82746887207031 0,96.82746887207031 C-53.43907928466797,96.82746887207031 -96.82746887207031,53.43907928466797 -96.82746887207031,0 C-96.82746887207031,-53.43907928466797 -53.43907928466797,-96.82746887207031 0,-96.82746887207031z"/></g></g><g transform="matrix(1,0,0,1,1998,516)" opacity="1" style="display: block;"><g opacity="1" transform="matrix(1,0,0,1,-503.8009948730469,89.1989974975586)"><path stroke-linecap="butt" stroke-linejoin="miter" fill-opacity="0" stroke-miterlimit="4" stroke="rgb(255,255,255)" stroke-opacity="1" stroke-width="1.9642243117216338" d=" M0,-106.06600952148438 C58.5378303527832,-106.06600952148438 106.06600952148438,-58.5378303527832 106.06600952148438,0 C106.06600952148438,58.5378303527832 58.5378303527832,106.06600952148438 0,106.06600952148438 C-58.5378303527832,106.06600952148438 -106.06600952148438,58.5378303527832 -106.06600952148438,0 C-106.06600952148438,-58.5378303527832 -58.5378303527832,-106.06600952148438 0,-106.06600952148438z"/></g></g><g transform="matrix(0.5,0,0,0.5,1746.0994873046875,560.5994873046875)" opacity="1" style="display: block;"><g opacity="1" transform="matrix(1,0,0,1,-503.8009948730469,89.1989974975586)"><path stroke-linecap="butt" stroke-linejoin="miter" fill-opacity="0" stroke-miterlimit="4" stroke="rgb(255,255,255)" stroke-opacity="1" stroke-width="3.9284680336078335" d=" M0,-113.18315124511719 C62.465782165527344,-113.18315124511719 113.18315124511719,-62.465782165527344 113.18315124511719,0 C113.18315124511719,62.465782165527344 62.465782165527344,113.18315124511719 0,113.18315124511719 C-62.465782165527344,113.18315124511719 -113.18315124511719,62.465782165527344 -113.18315124511719,0 C-113.18315124511719,-62.465782165527344 -62.465782165527344,-113.18315124511719 0,-113.18315124511719z"/></g></g></g></svg>